<?xml version="1.0" encoding="utf-8"?>
<svg viewBox="0 0 512 512" xmlns="http://www.w3.org/2000/svg">
  <g transform="matrix(0.10000000149011613, 0, 0, -0.10000000149011613, 0, 512)" fill="#000000" stroke="none">
    <path d="M998 4954 c-150 -27 -325 -105 -446 -197 -74 -57 -177 -166 -225&#10;-240 -57 -86 -123 -231 -149 -327 l-23 -85 -2 -1504 c-3 -1310 -1 -1516 12&#10;-1593 74 -432 410 -767 844 -843 125 -22 2977 -22 3102 0 434 76 768 410 844&#10;844 22 125 22 2977 0 3102 -75 433 -411 769 -841 844 -125 22 -2996 21 -3116&#10;-1z m2352 -2336 l568 -1278 -357 0 -357 0 -324 773 c-178 424 -326 775 -330&#10;780 -4 5 -392 -864 -438 -984 -2 -5 97 -9 220 -9 l223 0 101 -278 100 -277&#10;-388 -3 c-213 -1 -562 -1 -776 0 l-387 3 537 1230 c296 677 547 1251 558 1278&#10;l21 47 230 -2 231 -3 568 -1277z" style="fill: rgb(254, 112, 90);"/>
    <path d="M2391 3758 c-5 -13 -230 -529 -501 -1148 -270 -619 -494 -1131 -497&#10;-1137 -4 -10 118 -13 591 -13 328 0 596 3 596 6 0 5 -87 249 -105 297 -7 16&#10;-29 17 -277 17 -253 0 -270 1 -264 18 30 84 612 1409 617 1404 3 -4 170 -397&#10;370 -874 l364 -868 222 0 c192 0 222 2 217 15 -3 8 -235 529 -514 1157 l-508&#10;1143 -151 3 c-149 2 -151 2 -160 -20z" style="fill: rgb(254, 112, 90);"/>
  </g>
</svg>